<svg width="12" height="13" viewBox="0 0 12 13" fill="none" xmlns="http://www.w3.org/2000/svg">
<path d="M10.5 0.804688H1.5C0.88125 0.804688 0.375 1.31094 0.375 1.92969V10.9297C0.375 11.2281 0.493526 11.5142 0.704505 11.7252C0.915483 11.9362 1.20163 12.0547 1.5 12.0547H10.5C11.1244 12.0547 11.625 11.5541 11.625 10.9297V1.92969C11.625 1.63132 11.5065 1.34517 11.2955 1.13419C11.0845 0.923214 10.7984 0.804688 10.5 0.804688ZM1.5 3.05469L2.625 1.92969H5.38125L1.5 5.81094V3.05469ZM1.5 7.38594L6.95625 1.92969H9.7125L1.5 10.1422V7.38594ZM10.5 9.80469L9.375 10.9297H6.61875L10.5 7.04844V9.80469ZM10.5 5.47344L5.04375 10.9297H2.2875L10.5 2.71719V5.47344Z" fill="#04C23A"/>
</svg>
