<svg width="15" height="15" viewBox="0 0 15 15" fill="none" xmlns="http://www.w3.org/2000/svg">
<path d="M7.49977 10.8752C7.42995 10.8751 7.36123 10.8577 7.2998 10.8245L1.81543 7.87141L2.21537 7.12891L7.49977 9.97403L12.7842 7.12891L13.1841 7.87141L7.69974 10.8245C7.63832 10.8577 7.5696 10.8751 7.49977 10.8752Z" fill="#1B1C57"/>
<path d="M7.49959 13.4061C7.42976 13.4061 7.36104 13.3887 7.29962 13.3555L1.81525 10.4024L2.21518 9.65989L7.49959 12.505L12.784 9.65989L13.1839 10.4024L7.69956 13.3555C7.63814 13.3887 7.56941 13.4061 7.49959 13.4061ZM7.49959 8.34364C7.42976 8.34363 7.36104 8.32623 7.29962 8.29302L1.81525 5.33989C1.74827 5.30375 1.69232 5.25015 1.65333 5.1848C1.61434 5.11944 1.59375 5.04475 1.59375 4.96864C1.59375 4.89254 1.61434 4.81785 1.65333 4.75249C1.69232 4.68713 1.74827 4.63354 1.81525 4.59739L7.29962 1.64427C7.36106 1.61111 7.42978 1.59375 7.49959 1.59375C7.5694 1.59375 7.63812 1.61111 7.69956 1.64427L13.1839 4.59739C13.2509 4.63354 13.3069 4.68713 13.3458 4.75249C13.3848 4.81785 13.4054 4.89254 13.4054 4.96864C13.4054 5.04475 13.3848 5.11944 13.3458 5.1848C13.3069 5.25015 13.2509 5.30375 13.1839 5.33989L7.69956 8.29302C7.63814 8.32623 7.56941 8.34363 7.49959 8.34364ZM2.90537 4.96864L7.49959 7.44252L12.0938 4.96864L7.49959 2.49477L2.90537 4.96864Z" fill="#1B1C57"/>
</svg>
