<svg width="14" height="14" viewBox="0 0 14 14" fill="none" xmlns="http://www.w3.org/2000/svg">
<path d="M7 1.9375C7.14337 1.93766 7.28127 1.99256 7.38552 2.09098C7.48977 2.1894 7.55251 2.32391 7.56091 2.46703C7.56931 2.61016 7.52275 2.75109 7.43073 2.86103C7.33871 2.97097 7.20818 3.04163 7.06581 3.05856L7 3.0625H4.1875C4.04973 3.06252 3.91675 3.1131 3.81379 3.20465C3.71083 3.2962 3.64506 3.42236 3.62894 3.55919L3.625 3.625V10.375C3.62502 10.5128 3.6756 10.6458 3.76715 10.7487C3.8587 10.8517 3.98486 10.9174 4.12169 10.9336L4.1875 10.9375H6.71875C6.86212 10.9377 7.00002 10.9926 7.10427 11.091C7.20852 11.1894 7.27126 11.3239 7.27966 11.467C7.28806 11.6102 7.2415 11.7511 7.14948 11.861C7.05746 11.971 6.92693 12.0416 6.78456 12.0586L6.71875 12.0625H4.1875C3.75707 12.0625 3.3429 11.8981 3.02973 11.6028C2.71656 11.3075 2.52806 10.9037 2.50281 10.474L2.5 10.375V3.625C2.49998 3.19457 2.66443 2.7804 2.95972 2.46723C3.25501 2.15406 3.65881 1.96556 4.0885 1.94031L4.1875 1.9375H7ZM8.28981 5.011C8.39104 4.91012 8.52687 4.85155 8.66972 4.84718C8.81256 4.84282 8.95171 4.893 9.05891 4.98751C9.1661 5.08203 9.2333 5.21381 9.24685 5.35608C9.2604 5.49835 9.2193 5.64044 9.13188 5.7535L9.08519 5.80694L8.45463 6.4375H11.5C11.6434 6.43766 11.7813 6.49256 11.8855 6.59098C11.9898 6.6894 12.0525 6.82391 12.0609 6.96703C12.0693 7.11016 12.0227 7.25109 11.9307 7.36103C11.8387 7.47097 11.7082 7.54163 11.5658 7.55856L11.5 7.5625H8.45463L9.08519 8.19306C9.18714 8.29405 9.24664 8.4302 9.25151 8.57362C9.25638 8.71704 9.20624 8.85691 9.11136 8.96458C9.01649 9.07225 8.88405 9.13958 8.74115 9.1528C8.59825 9.16602 8.45571 9.12413 8.34269 9.03569L8.28981 8.989L6.6985 7.39769C6.60165 7.30083 6.54347 7.17196 6.53488 7.03526C6.52628 6.89856 6.56786 6.76341 6.65181 6.65519L6.6985 6.60231L8.28981 5.011Z" fill="#1B1C57"/>
</svg>
