<svg width="14" height="15" viewBox="0 0 14 15" fill="none" xmlns="http://www.w3.org/2000/svg">
<path d="M11.5 1.875H2.5C1.88125 1.875 1.375 2.38125 1.375 3V12C1.375 12.2984 1.49353 12.5845 1.7045 12.7955C1.91548 13.0065 2.20163 13.125 2.5 13.125H11.5C12.1244 13.125 12.625 12.6244 12.625 12V3C12.625 2.70163 12.5065 2.41548 12.2955 2.2045C12.0845 1.99353 11.7984 1.875 11.5 1.875ZM2.5 4.125L3.625 3H6.38125L2.5 6.88125V4.125ZM2.5 8.45625L7.95625 3H10.7125L2.5 11.2125V8.45625ZM11.5 10.875L10.375 12H7.61875L11.5 8.11875V10.875ZM11.5 6.54375L6.04375 12H3.2875L11.5 3.7875V6.54375Z" fill="#1B1C57"/>
</svg>
