<svg width="11" height="9" viewBox="0 0 11 9" fill="none" xmlns="http://www.w3.org/2000/svg">
<path d="M0.0996094 8.5502C0.0996094 8.63971 0.135167 8.72555 0.198461 8.78884C0.261754 8.85214 0.347599 8.8877 0.437109 8.8877C0.52662 8.8877 0.612464 8.85214 0.675758 8.78884C0.739051 8.72555 0.774609 8.63971 0.774609 8.5502L0.774609 1.1252C0.774609 1.03568 0.739051 0.94984 0.675758 0.886546C0.612464 0.823253 0.52662 0.787695 0.437109 0.787695C0.347599 0.787695 0.261754 0.823253 0.198461 0.886546C0.135167 0.94984 0.0996094 1.03568 0.0996094 1.1252L0.0996094 8.5502ZM10.2246 8.5502C10.2246 8.63971 10.2602 8.72555 10.3235 8.78884C10.3868 8.85214 10.4726 8.8877 10.5621 8.8877C10.6516 8.8877 10.7375 8.85214 10.8008 8.78884C10.8641 8.72555 10.8996 8.63971 10.8996 8.5502V1.1252C10.8996 1.03568 10.8641 0.94984 10.8008 0.886546C10.7375 0.823253 10.6516 0.787695 10.5621 0.787695C10.4726 0.787695 10.3868 0.823253 10.3235 0.886546C10.2602 0.94984 10.2246 1.03568 10.2246 1.1252V8.5502ZM2.22316 5.07665C2.19173 5.04529 2.16679 5.00805 2.14978 4.96705C2.13276 4.92604 2.12401 4.88209 2.12401 4.8377C2.12401 4.7933 2.13276 4.74935 2.14978 4.70834C2.16679 4.66734 2.19173 4.6301 2.22316 4.59875L3.57316 3.24874C3.60454 3.21737 3.64179 3.19247 3.68279 3.17549C3.72379 3.15851 3.76773 3.14977 3.81211 3.14977C3.85649 3.14977 3.90043 3.15851 3.94143 3.17549C3.98243 3.19247 4.01968 3.21737 4.05106 3.24874C4.08244 3.28012 4.10733 3.31738 4.12431 3.35838C4.14129 3.39938 4.15004 3.44332 4.15004 3.4877C4.15004 3.53207 4.14129 3.57601 4.12431 3.61701C4.10733 3.65801 4.08244 3.69527 4.05106 3.72665L3.27683 4.5002L7.72238 4.5002L6.94816 3.72665C6.88479 3.66327 6.84918 3.57732 6.84918 3.4877C6.84918 3.39807 6.88479 3.31212 6.94816 3.24874C7.01153 3.18537 7.09749 3.14977 7.18711 3.14977C7.27673 3.14977 7.36269 3.18537 7.42606 3.24874L8.77606 4.59875C8.80749 4.6301 8.83243 4.66734 8.84944 4.70834C8.86646 4.74935 8.87521 4.7933 8.87521 4.8377C8.87521 4.88209 8.86646 4.92604 8.84944 4.96705C8.83243 5.00805 8.80749 5.04529 8.77606 5.07665L7.42606 6.42665C7.36269 6.49002 7.27673 6.52562 7.18711 6.52562C7.09749 6.52562 7.01153 6.49002 6.94816 6.42665C6.88479 6.36327 6.84918 6.27732 6.84918 6.1877C6.84918 6.09807 6.88479 6.01212 6.94816 5.94875L7.72238 5.1752H3.27683L4.05106 5.94875C4.11443 6.01212 4.15004 6.09807 4.15004 6.1877C4.15004 6.27732 4.11443 6.36327 4.05106 6.42665C3.98769 6.49002 3.90173 6.52562 3.81211 6.52562C3.72249 6.52562 3.63653 6.49002 3.57316 6.42665L2.22316 5.07665Z" fill="#1B1C57"/>
</svg>
