<svg width="14" height="15" viewBox="0 0 14 15" fill="none" xmlns="http://www.w3.org/2000/svg">
<path d="M2.9498 2.1001C2.86029 2.1001 2.77445 2.13566 2.71116 2.19895C2.64786 2.26224 2.6123 2.34809 2.6123 2.4376C2.6123 2.52711 2.64786 2.61295 2.71116 2.67625C2.77445 2.73954 2.86029 2.7751 2.9498 2.7751H10.3748C10.4643 2.7751 10.5502 2.73954 10.6135 2.67625C10.6767 2.61295 10.7123 2.52711 10.7123 2.4376C10.7123 2.34809 10.6767 2.26224 10.6135 2.19895C10.5502 2.13566 10.4643 2.1001 10.3748 2.1001H2.9498ZM2.9498 12.2251C2.86029 12.2251 2.77445 12.2607 2.71116 12.3239C2.64786 12.3872 2.6123 12.4731 2.6123 12.5626C2.6123 12.6521 2.64786 12.738 2.71116 12.8012C2.77445 12.8645 2.86029 12.9001 2.9498 12.9001H10.3748C10.4643 12.9001 10.5502 12.8645 10.6135 12.8012C10.6767 12.738 10.7123 12.6521 10.7123 12.5626C10.7123 12.4731 10.6767 12.3872 10.6135 12.3239C10.5502 12.2607 10.4643 12.2251 10.3748 12.2251H2.9498ZM6.42335 4.22365C6.45471 4.19222 6.49195 4.16728 6.53295 4.15027C6.57396 4.13325 6.61791 4.12449 6.6623 4.12449C6.7067 4.12449 6.75065 4.13325 6.79166 4.15027C6.83266 4.16728 6.8699 4.19222 6.90125 4.22365L8.25126 5.57365C8.28263 5.60503 8.30753 5.64228 8.32451 5.68328C8.34149 5.72428 8.35023 5.76822 8.35023 5.8126C8.35023 5.85697 8.34149 5.90092 8.32451 5.94192C8.30753 5.98292 8.28263 6.02017 8.25126 6.05155C8.21988 6.08293 8.18262 6.10782 8.14162 6.1248C8.10062 6.14178 8.05668 6.15052 8.0123 6.15052C7.96793 6.15052 7.92399 6.14178 7.88299 6.1248C7.84199 6.10782 7.80473 6.08293 7.77335 6.05155L6.9998 5.27732V9.72287L7.77335 8.94865C7.83673 8.88527 7.92268 8.84967 8.0123 8.84967C8.10193 8.84967 8.18788 8.88527 8.25126 8.94865C8.31463 9.01202 8.35023 9.09797 8.35023 9.1876C8.35023 9.27722 8.31463 9.36317 8.25126 9.42655L6.90125 10.7765C6.8699 10.808 6.83266 10.8329 6.79166 10.8499C6.75065 10.8669 6.7067 10.8757 6.6623 10.8757C6.61791 10.8757 6.57396 10.8669 6.53295 10.8499C6.49195 10.8329 6.45471 10.808 6.42335 10.7765L5.07335 9.42655C5.00998 9.36317 4.97438 9.27722 4.97438 9.1876C4.97438 9.09797 5.00998 9.01202 5.07335 8.94865C5.13673 8.88527 5.22268 8.84967 5.3123 8.84967C5.40193 8.84967 5.48788 8.88527 5.55125 8.94865L6.3248 9.72287V5.27732L5.55125 6.05155C5.48788 6.11492 5.40193 6.15052 5.3123 6.15052C5.22268 6.15052 5.13673 6.11492 5.07335 6.05155C5.00998 5.98817 4.97438 5.90222 4.97438 5.8126C4.97438 5.72297 5.00998 5.63702 5.07335 5.57365L6.42335 4.22365Z" fill="#1B1C57"/>
</svg>
