<svg width="13" height="13" viewBox="0 0 13 13" fill="none" xmlns="http://www.w3.org/2000/svg">
<path d="M7.25026 3.99522H8.14526C8.37026 3.99522 8.48026 3.72522 8.32026 3.57022L6.92526 2.18022C6.87751 2.13444 6.81391 2.10889 6.74776 2.10889C6.68161 2.10889 6.61801 2.13444 6.57026 2.18022L5.18026 3.57022C5.02026 3.72522 5.13026 3.99522 5.35526 3.99522H6.25026V9.00522H5.35526C5.13026 9.00522 5.02026 9.27522 5.18026 9.43022L6.57526 10.8202C6.67526 10.9152 6.83026 10.9152 6.93026 10.8202L8.32526 9.43022C8.48526 9.27522 8.37026 9.00522 8.15026 9.00522H7.25026V3.99522Z" fill="#1B1C57"/>
</svg>
