<svg width="14" height="14" viewBox="0 0 14 14" fill="none" xmlns="http://www.w3.org/2000/svg">
<path d="M3.0625 5.39687V4.1875C3.0625 3.56875 3.56875 3.0625 4.1875 3.0625H9.8125C10.4313 3.0625 10.9375 3.56875 10.9375 4.1875V5.4025C10.285 5.63312 9.8125 6.25188 9.8125 6.98313V8.125H4.1875V6.9775C4.1875 6.25187 3.715 5.6275 3.0625 5.39687ZM11.5 5.875C10.8813 5.875 10.375 6.38125 10.375 7V8.6875H3.625V7C3.625 6.70163 3.50647 6.41548 3.2955 6.2045C3.08452 5.99353 2.79837 5.875 2.5 5.875C2.20163 5.875 1.91548 5.99353 1.7045 6.2045C1.49353 6.41548 1.375 6.70163 1.375 7V9.8125C1.375 10.4313 1.88125 10.9375 2.5 10.9375V12.0625H3.625V10.9375H10.375V12.0625H11.5V10.9375C12.1188 10.9375 12.625 10.4313 12.625 9.8125V7C12.625 6.38125 12.1188 5.875 11.5 5.875Z" fill="#1B1C57"/>
</svg>
