<svg width="25" height="25" viewBox="0 0 25 25" fill="none" xmlns="http://www.w3.org/2000/svg">
<path d="M12.123 9.74894C10.7458 9.74894 9.62197 10.8728 9.62197 12.25C9.62197 13.6272 10.7458 14.7511 12.123 14.7511C13.5001 14.7511 14.624 13.6272 14.624 12.25C14.624 10.8728 13.5001 9.74894 12.123 9.74894ZM19.6242 12.25C19.6242 11.2143 19.6335 10.188 19.5754 9.15416C19.5172 7.95335 19.2433 6.88763 18.3652 6.00953C17.4853 5.12956 16.4214 4.85751 15.2206 4.79934C14.185 4.74118 13.1587 4.75056 12.1249 4.75056C11.0892 4.75056 10.0629 4.74118 9.02908 4.79934C7.82829 4.85751 6.76259 5.13144 5.88451 6.00953C5.00456 6.8895 4.7325 7.95335 4.67434 9.15416C4.61618 10.1899 4.62556 11.2162 4.62556 12.25C4.62556 13.2838 4.61618 14.312 4.67434 15.3458C4.7325 16.5467 5.00643 17.6124 5.88451 18.4905C6.76446 19.3704 7.82829 19.6425 9.02908 19.7007C10.0648 19.7588 11.0911 19.7494 12.1249 19.7494C13.1605 19.7494 14.1868 19.7588 15.2206 19.7007C16.4214 19.6425 17.4871 19.3686 18.3652 18.4905C19.2452 17.6105 19.5172 16.5467 19.5754 15.3458C19.6354 14.312 19.6242 13.2857 19.6242 12.25ZM12.123 16.0982C9.99346 16.0982 8.27483 14.3796 8.27483 12.25C8.27483 10.1204 9.99346 8.40177 12.123 8.40177C14.2525 8.40177 15.9711 10.1204 15.9711 12.25C15.9711 14.3796 14.2525 16.0982 12.123 16.0982ZM16.1287 9.1429C15.6315 9.1429 15.23 8.74138 15.23 8.24417C15.23 7.74696 15.6315 7.34544 16.1287 7.34544C16.6259 7.34544 17.0275 7.74696 17.0275 8.24417C17.0276 8.36223 17.0045 8.47917 16.9593 8.58827C16.9142 8.69738 16.848 8.79651 16.7646 8.88C16.6811 8.96348 16.5819 9.02968 16.4728 9.07479C16.3637 9.1199 16.2468 9.14305 16.1287 9.1429Z" fill="#3C4563"/>
</svg>
