<svg xmlns="http://www.w3.org/2000/svg" width="36" height="36" viewBox="0 0 36 36" fill="none">
<path d="M13.6042 25.4958L25.9125 17.5833L13.6042 9.67082V25.4958ZM18 35.1666C15.5676 35.1666 13.2818 34.7048 11.1425 33.7811C9.00321 32.8585 7.1423 31.606 5.55981 30.0235C3.97731 28.441 2.72479 26.5801 1.80225 24.4408C0.878542 22.3015 0.416687 20.0157 0.416687 17.5833C0.416687 15.151 0.878542 12.8651 1.80225 10.7258C2.72479 8.58652 3.97731 6.72562 5.55981 5.14312C7.1423 3.56062 9.00321 2.30752 11.1425 1.38381C13.2818 0.461269 15.5676 0 18 0C20.4324 0 22.7182 0.461269 24.8575 1.38381C26.9968 2.30752 28.8577 3.56062 30.4402 5.14312C32.0227 6.72562 33.2752 8.58652 34.1977 10.7258C35.1215 12.8651 35.5833 15.151 35.5833 17.5833C35.5833 20.0157 35.1215 22.3015 34.1977 24.4408C33.2752 26.5801 32.0227 28.441 30.4402 30.0235C28.8577 31.606 26.9968 32.8585 24.8575 33.7811C22.7182 34.7048 20.4324 35.1666 18 35.1666Z" fill="white"/>
</svg>