<svg width="57" height="30" viewBox="0 0 57 30" fill="none" xmlns="http://www.w3.org/2000/svg">
<path d="M53.951 0.617932C39.8974 6.24468 17.0309 6.24468 2.97742 0.617932C1.91064 0.190851 0.75 0.976485 0.75 2.12543V28.1076C0.75 29.2567 1.91064 30.0422 2.97742 29.6152C17.0308 23.9885 39.8974 23.9885 53.951 29.6152C55.0178 30.0423 56.1784 29.2567 56.1784 28.1076V2.12543C56.1784 0.976485 55.0178 0.190851 53.951 0.617932ZM13.2655 17.2177C13.8996 17.8519 13.8996 18.88 13.2655 19.5142C12.6313 20.1483 11.6031 20.1483 10.969 19.5142L7.72121 16.2664C7.08703 15.6322 7.08703 14.6041 7.72121 13.9699L10.969 10.7221C11.6031 10.088 12.6313 10.088 13.2655 10.7221C13.8996 11.3563 13.8996 12.3845 13.2655 13.0186L11.1659 15.1182L13.2655 17.2177ZM49.2072 16.2664L45.9595 19.5142C45.3253 20.1483 44.2972 20.1483 43.663 19.5142C43.0288 18.88 43.0288 17.8519 43.663 17.2177L45.7625 15.1182L43.663 13.0186C43.0288 12.3845 43.0288 11.3563 43.663 10.7221C44.2972 10.088 45.3253 10.088 45.9595 10.7221L49.2072 13.9699C49.8414 14.6041 49.8414 15.6323 49.2072 16.2664Z" fill="white"/>
</svg>
