<svg width="25" height="25" viewBox="0 0 25 25" fill="none" xmlns="http://www.w3.org/2000/svg">
<path d="M21.125 6.53181C20.4631 6.82471 19.7427 7.03551 19.0007 7.11761C19.7711 6.64816 20.348 5.90652 20.6231 5.03181C19.9003 5.47291 19.1084 5.78222 18.2826 5.94601C17.9374 5.56752 17.52 5.266 17.0562 5.06023C16.5925 4.85447 16.0925 4.74886 15.5872 4.75001C13.543 4.75001 11.8989 6.44971 11.8989 8.53551C11.8989 8.82841 11.9336 9.12131 11.9898 9.40311C8.92887 9.23891 6.19891 7.73891 4.38398 5.44232C4.05328 6.02171 3.87999 6.68143 3.88212 7.35282C3.88212 8.66643 4.53324 9.82471 5.52615 10.5059C4.94102 10.4823 4.36958 10.3173 3.85833 10.0244V10.071C3.85833 11.9105 5.12596 13.4349 6.81542 13.7855C6.49821 13.87 6.17188 13.9133 5.84414 13.9142C5.60403 13.9142 5.37689 13.8898 5.14759 13.8565C5.61484 15.3565 6.9755 16.446 8.59574 16.4815C7.3281 17.5 5.74031 18.0991 4.01624 18.0991C3.7069 18.0991 3.42136 18.088 3.125 18.0525C4.76038 19.1287 6.70077 19.75 8.79042 19.75C15.5742 19.75 19.2863 13.9852 19.2863 8.98152C19.2863 8.81731 19.2863 8.65311 19.2755 8.48891C19.9936 7.94971 20.6231 7.28181 21.125 6.53181Z" fill="#3C4563"/>
</svg>
