<svg width="16" height="16" viewBox="0 0 16 16" fill="none" xmlns="http://www.w3.org/2000/svg">
<path d="M7.91 6.23C8.87 6.275 9.1175 7.0925 9.1325 7.475H10.475C10.415 5.99 9.3575 5.0825 7.8875 5.0825C6.23 5.0825 5 6.125 5 8.48C5 9.935 5.6975 11.66 7.88 11.66C9.545 11.66 10.4375 10.4225 10.46 9.4475H9.1175C9.095 9.89 8.78 10.4825 7.895 10.5275C6.9125 10.4975 6.5 9.7325 6.5 8.48C6.5 6.3125 7.46 6.245 7.91 6.23ZM8 0.875C3.86 0.875 0.5 4.235 0.5 8.375C0.5 12.515 3.86 15.875 8 15.875C12.14 15.875 15.5 12.515 15.5 8.375C15.5 4.235 12.14 0.875 8 0.875ZM8 14.375C4.6925 14.375 2 11.6825 2 8.375C2 5.0675 4.6925 2.375 8 2.375C11.3075 2.375 14 5.0675 14 8.375C14 11.6825 11.3075 14.375 8 14.375Z" fill="white"/>
</svg>
