<svg width="6" height="14" viewBox="0 0 6 14" fill="none" xmlns="http://www.w3.org/2000/svg">
<path d="M0.500414 13.75C0.398359 13.75 0.299857 13.6825 0.223593 13.5605C0.147328 13.4384 0.0986047 13.2702 0.0866642 13.0878L0.0837474 13L0.0837474 1C0.0838652 0.808841 0.12453 0.624976 0.197434 0.485974C0.270338 0.346972 0.369978 0.263325 0.475996 0.252121C0.582013 0.240918 0.686406 0.303005 0.767844 0.425698C0.849283 0.548391 0.901621 0.722427 0.914164 0.91225L0.917081 1L0.917081 13C0.917081 13.1989 0.873183 13.3897 0.795043 13.5303C0.716902 13.671 0.610921 13.75 0.500414 13.75ZM5.795 13.5303C5.72325 13.6594 5.62779 13.737 5.52653 13.7484C5.42527 13.7599 5.32517 13.7044 5.245 13.5925L5.20583 13.5303L1.8725 7.53025C1.80076 7.40111 1.75766 7.22928 1.75129 7.04701C1.74493 6.86474 1.77573 6.68455 1.83791 6.54025L1.8725 6.46975L5.20583 0.469749C5.28081 0.335238 5.38143 0.257145 5.48724 0.251329C5.59305 0.245513 5.69613 0.312411 5.77553 0.438437C5.85493 0.564463 5.90471 0.740164 5.91475 0.929856C5.92479 1.11955 5.89434 1.30901 5.82958 1.45975L5.795 1.53025L2.75625 7L5.795 12.4698C5.87311 12.6104 5.91699 12.8011 5.91699 13C5.91699 13.1989 5.87311 13.3896 5.795 13.5303Z" fill="white"/>
</svg>
