<svg width="7" height="14" viewBox="0 0 7 14" fill="none" xmlns="http://www.w3.org/2000/svg">
<path d="M6.40257 0C6.51483 2.42329e-05 6.62318 0.0674671 6.70708 0.189537C6.79097 0.311606 6.84456 0.479812 6.8577 0.66225L6.86091 0.75V12.75C6.86078 12.9412 6.81604 13.125 6.73585 13.264C6.65566 13.403 6.54605 13.4867 6.42943 13.4979C6.31281 13.5091 6.19798 13.447 6.1084 13.3243C6.01882 13.2016 5.96124 13.0276 5.94745 12.8378L5.94424 12.75V0.75C5.94424 0.551088 5.99253 0.360322 6.07848 0.21967C6.16443 0.0790176 6.28101 0 6.40257 0ZM0.57853 0.21975C0.657452 0.0906175 0.762456 0.0130441 0.873843 0.00158322C0.985229 -0.00987767 1.09534 0.0455616 1.18353 0.1575L1.22661 0.21975L4.89328 6.21975C4.97219 6.34889 5.0196 6.52072 5.0266 6.70299C5.03361 6.88526 4.99973 7.06545 4.93132 7.20975L4.89328 7.28025L1.22661 13.2803C1.14413 13.4148 1.03346 13.4929 0.917062 13.4987C0.800669 13.5045 0.687286 13.4376 0.599944 13.3116C0.512601 13.1855 0.457848 13.0098 0.446805 12.8201C0.435762 12.6305 0.469258 12.441 0.540488 12.2902L0.57853 12.2197L3.92116 6.75L0.57853 1.28025C0.492606 1.1396 0.444336 0.948873 0.444336 0.75C0.444336 0.551127 0.492606 0.360396 0.57853 0.21975Z" fill="white"/>
</svg>
