<svg width="19" height="19" viewBox="0 0 19 19" fill="none" xmlns="http://www.w3.org/2000/svg">
<path d="M9.75001 1.25C8.10957 1.25194 6.53688 1.90445 5.37692 3.06441C4.21696 4.22438 3.56444 5.79707 3.56251 7.4375C3.56054 8.77806 3.99843 10.0823 4.80901 11.15C4.80901 11.15 4.97776 11.3722 5.00532 11.4043L9.75001 17L14.4969 11.4014C14.5217 11.3716 14.691 11.15 14.691 11.15L14.6916 11.1483C15.5017 10.081 15.9394 8.77745 15.9375 7.4375C15.9356 5.79707 15.2831 4.22438 14.1231 3.06441C12.9631 1.90445 11.3904 1.25194 9.75001 1.25ZM9.75001 9.6875C9.305 9.6875 8.86998 9.55554 8.49997 9.30831C8.12996 9.06107 7.84157 8.70967 7.67128 8.29854C7.50098 7.8874 7.45642 7.435 7.54324 6.99855C7.63006 6.56209 7.84435 6.16118 8.15902 5.84651C8.47368 5.53184 8.8746 5.31755 9.31105 5.23073C9.74751 5.14392 10.1999 5.18847 10.611 5.35877C11.0222 5.52907 11.3736 5.81746 11.6208 6.18747C11.868 6.55748 12 6.99249 12 7.4375C11.9993 8.03401 11.762 8.60587 11.3402 9.02767C10.9184 9.44946 10.3465 9.68676 9.75001 9.6875Z" fill="#1D4ED8"/>
</svg>
