<svg width="15" height="15" viewBox="0 0 15 15" fill="none" xmlns="http://www.w3.org/2000/svg">
<path d="M12 7.375C11.85 7.375 11.7165 7.321 11.5995 7.213C11.4821 7.10537 11.4141 6.97187 11.3953 6.8125C11.2734 5.94063 10.9056 5.19756 10.2917 4.58331C9.67744 3.96944 8.93437 3.60156 8.0625 3.47969C7.90313 3.46094 7.76963 3.39531 7.662 3.28281C7.554 3.17031 7.5 3.03437 7.5 2.875C7.5 2.71563 7.55625 2.58194 7.66875 2.47394C7.78125 2.36631 7.9125 2.32187 8.0625 2.34062C9.24375 2.47187 10.2516 2.95469 11.0859 3.78906C11.9203 4.62344 12.4031 5.63125 12.5344 6.8125C12.5531 6.9625 12.5085 7.09375 12.4005 7.20625C12.2929 7.31875 12.1594 7.375 12 7.375ZM9.65156 7.375C9.52969 7.375 9.42188 7.33281 9.32812 7.24844C9.23437 7.16406 9.16406 7.05156 9.11719 6.91094C9.04219 6.63906 8.89931 6.39756 8.68856 6.18644C8.47744 5.97569 8.23594 5.83281 7.96406 5.75781C7.82344 5.71094 7.71094 5.64063 7.62656 5.54688C7.54219 5.45312 7.5 5.34062 7.5 5.20937C7.5 5.02187 7.56563 4.86944 7.69688 4.75206C7.82813 4.63506 7.97344 4.59531 8.13281 4.63281C8.65781 4.75469 9.11025 5.00537 9.49013 5.38487C9.86963 5.76475 10.1203 6.21719 10.2422 6.74219C10.2797 6.90156 10.2375 7.04687 10.1156 7.17812C9.99375 7.30937 9.83906 7.375 9.65156 7.375V7.375ZM11.9719 12.4375C10.7625 12.4375 9.58369 12.1679 8.43544 11.6286C7.28681 11.0898 6.26962 10.3773 5.38387 9.49113C4.49775 8.60538 3.78525 7.58819 3.24638 6.43956C2.70713 5.29131 2.4375 4.1125 2.4375 2.90313C2.4375 2.73438 2.49375 2.59375 2.60625 2.48125C2.71875 2.36875 2.85938 2.3125 3.02813 2.3125H5.30625C5.4375 2.3125 5.55469 2.35469 5.65781 2.43906C5.76094 2.52344 5.82188 2.63125 5.84063 2.7625L6.20625 4.73125C6.225 4.8625 6.22275 4.98194 6.1995 5.08956C6.17587 5.19756 6.12187 5.29375 6.0375 5.37812L4.6875 6.75625C5.08125 7.43125 5.57344 8.06406 6.16406 8.65469C6.75469 9.24531 7.40625 9.75625 8.11875 10.1875L9.44062 8.86562C9.525 8.78125 9.63525 8.71788 9.77138 8.6755C9.90713 8.6335 10.0406 8.62187 10.1719 8.64062L12.1125 9.03437C12.2438 9.0625 12.3516 9.12569 12.4359 9.22394C12.5203 9.32256 12.5625 9.4375 12.5625 9.56875V11.8469C12.5625 12.0156 12.5063 12.1563 12.3938 12.2688C12.2813 12.3813 12.1406 12.4375 11.9719 12.4375Z" fill="#04C23A"/>
</svg>
