<svg width="14" height="14" viewBox="0 0 14 14" fill="none" xmlns="http://www.w3.org/2000/svg">
<path d="M11.2158 3.13691C10.7001 2.61599 10.0859 2.20297 9.40887 1.92194C8.73187 1.6409 8.0057 1.49748 7.2727 1.50003C4.20145 1.50003 1.69832 4.00316 1.69832 7.07441C1.69832 8.05878 1.95707 9.01503 2.44082 9.85878L1.65332 12.75L4.60645 11.9738C5.42207 12.4182 6.33895 12.6544 7.2727 12.6544C10.3439 12.6544 12.8471 10.1513 12.8471 7.08003C12.8471 5.58941 12.2677 4.18878 11.2158 3.13691ZM7.2727 11.7094C6.4402 11.7094 5.62457 11.4844 4.9102 11.0625L4.74145 10.9613L2.98645 11.4225L3.45332 9.71253L3.34082 9.53816C2.8783 8.79958 2.63271 7.94586 2.63207 7.07441C2.63207 4.52066 4.71332 2.43941 7.26707 2.43941C8.50457 2.43941 9.66895 2.92316 10.5408 3.80066C10.9725 4.23039 11.3147 4.74153 11.5474 5.30446C11.7801 5.86739 11.8987 6.47091 11.8964 7.08003C11.9077 9.63378 9.82645 11.7094 7.2727 11.7094ZM9.8152 8.24441C9.67457 8.17691 8.98832 7.83941 8.86457 7.78878C8.7352 7.74378 8.6452 7.72128 8.54957 7.85628C8.45395 7.99691 8.18957 8.31191 8.11082 8.40191C8.03207 8.49753 7.9477 8.50878 7.80707 8.43566C7.66645 8.36816 7.21644 8.21628 6.6877 7.74378C6.27145 7.37253 5.99582 6.91691 5.91145 6.77628C5.8327 6.63566 5.9002 6.56253 5.97332 6.48941C6.03519 6.42753 6.11395 6.32628 6.18145 6.24753C6.24895 6.16878 6.27707 6.10691 6.32207 6.01691C6.36707 5.92128 6.34457 5.84253 6.31082 5.77503C6.27707 5.70753 5.99582 5.02128 5.88332 4.74003C5.77082 4.47003 5.6527 4.50378 5.56832 4.49816H5.29832C5.2027 4.49816 5.05645 4.53191 4.92707 4.67253C4.80332 4.81316 4.44332 5.15066 4.44332 5.83691C4.44332 6.52316 4.94395 7.18691 5.01145 7.27691C5.07895 7.37253 5.99582 8.77878 7.39082 9.38066C7.7227 9.52691 7.98145 9.61128 8.18395 9.67316C8.51582 9.78003 8.81957 9.76316 9.06145 9.72941C9.33145 9.69003 9.88832 9.39191 10.0008 9.06566C10.1189 8.73941 10.1189 8.46378 10.0796 8.40191C10.0402 8.34003 9.95582 8.31191 9.8152 8.24441Z" fill="#04C23A"/>
</svg>
