<svg xmlns="http://www.w3.org/2000/svg" width="25" height="25" viewBox="0 0 25 25" fill="none">
<path d="M19.7504 11.0734H8.58041L13.4604 6.1934C13.8504 5.8034 13.8504 5.1634 13.4604 4.7734C13.3679 4.6807 13.258 4.60715 13.137 4.55697C13.0161 4.50679 12.8864 4.48096 12.7554 4.48096C12.6244 4.48096 12.4948 4.50679 12.3738 4.55697C12.2528 4.60715 12.1429 4.6807 12.0504 4.7734L5.46041 11.3634C5.36771 11.4559 5.29416 11.5658 5.24398 11.6868C5.1938 11.8077 5.16797 11.9374 5.16797 12.0684C5.16797 12.1994 5.1938 12.3291 5.24398 12.45C5.29416 12.571 5.36771 12.6809 5.46041 12.7734L12.0504 19.3634C12.143 19.456 12.2529 19.5294 12.3739 19.5795C12.4948 19.6296 12.6245 19.6554 12.7554 19.6554C12.8863 19.6554 13.016 19.6296 13.137 19.5795C13.2579 19.5294 13.3678 19.456 13.4604 19.3634C13.553 19.2708 13.6264 19.1609 13.6765 19.0399C13.7266 18.919 13.7524 18.7893 13.7524 18.6584C13.7524 18.5275 13.7266 18.3978 13.6765 18.2769C13.6264 18.1559 13.553 18.046 13.4604 17.9534L8.58041 13.0734H19.7504C20.3004 13.0734 20.7504 12.6234 20.7504 12.0734C20.7504 11.5234 20.3004 11.0734 19.7504 11.0734Z" fill="#1B1C57"/>
</svg>