<svg xmlns="http://www.w3.org/2000/svg" width="15" height="15" viewBox="0 0 15 15" fill="none">
<path d="M11.5922 4.80982L8.63906 1.85669C8.60194 1.81547 8.5563 1.78281 8.50532 1.76095C8.45433 1.7391 8.3992 1.72858 8.34375 1.73013H4.125C3.90143 1.7308 3.68721 1.81991 3.52912 1.978C3.37103 2.13608 3.28192 2.35031 3.28125 2.57388V12.6989C3.28192 12.9225 3.37103 13.1367 3.52912 13.2948C3.68721 13.4529 3.90143 13.542 4.125 13.5426H10.875C11.0986 13.542 11.3128 13.4529 11.4709 13.2948C11.629 13.1367 11.7181 12.9225 11.7188 12.6989V5.10513C11.7203 5.04968 11.7098 4.99455 11.6879 4.94356C11.6661 4.89257 11.6334 4.84694 11.5922 4.80982ZM8.34375 2.74263L10.7063 5.10513H8.34375V2.74263ZM10.875 12.6989H4.125V2.57388H7.5V5.10513C7.50067 5.3287 7.58978 5.54292 7.74787 5.70101C7.90596 5.8591 8.12018 5.94821 8.34375 5.94888H10.875V12.6989Z" fill="#1B1C57"/>
</svg>