<svg xmlns="http://www.w3.org/2000/svg" width="18" height="17" viewBox="0 0 18 17" fill="none">
<g clip-path="url(#clip0_274_62730)">
<path d="M17.25 8.56787C17.25 4.01155 13.5563 0.317871 9 0.317871C4.44368 0.317871 0.75 4.01149 0.75 8.56787C0.75 12.6857 3.76692 16.0988 7.71094 16.7176V10.9526H5.61621V8.56787H7.71094V6.75029C7.71094 4.68264 8.94264 3.54053 10.8271 3.54053C11.7297 3.54053 12.6738 3.70166 12.6738 3.70166V5.73193H11.6336C10.6086 5.73193 10.2891 6.36789 10.2891 7.02035V8.56787H12.5771L12.2114 10.9526H10.2891V16.7176C14.2331 16.0988 17.25 12.6857 17.25 8.56787Z" fill="#1877F2"/>
<path d="M12.2114 10.9526L12.5771 8.56787H10.2891V7.02035C10.2891 6.36783 10.6087 5.73193 11.6336 5.73193H12.6738V3.70166C12.6738 3.70166 11.7297 3.54053 10.8271 3.54053C8.94264 3.54053 7.71094 4.68264 7.71094 6.75029V8.56787H5.61621V10.9526H7.71094V16.7176C8.13737 16.7845 8.56836 16.818 9 16.8179C9.43164 16.818 9.86263 16.7845 10.2891 16.7176V10.9526H12.2114Z" fill="white"/>
</g>
<defs>
<clipPath id="clip0_274_62730">
<rect width="16.5" height="16.5" fill="white" transform="translate(0.75 0.317871)"/>
</clipPath>
</defs>
</svg>