<svg xmlns="http://www.w3.org/2000/svg" width="19" height="18" viewBox="0 0 19 18" fill="none">
  <path d="M9.75001 1.125C8.10957 1.12694 6.53688 1.77945 5.37692 2.93941C4.21696 4.09938 3.56444 5.67207 3.56251 7.3125C3.56054 8.65306 3.99843 9.95725 4.80901 11.025C4.80901 11.025 4.97776 11.2472 5.00532 11.2793L9.75001 16.875L14.4969 11.2764C14.5217 11.2466 14.691 11.025 14.691 11.025L14.6916 11.0233C15.5017 9.95603 15.9394 8.65245 15.9375 7.3125C15.9356 5.67207 15.2831 4.09938 14.1231 2.93941C12.9631 1.77945 11.3904 1.12694 9.75001 1.125ZM9.75001 9.5625C9.305 9.5625 8.86998 9.43054 8.49997 9.18331C8.12996 8.93607 7.84157 8.58467 7.67128 8.17354C7.50098 7.7624 7.45642 7.31 7.54324 6.87355C7.63006 6.43709 7.84435 6.03618 8.15902 5.72151C8.47368 5.40684 8.8746 5.19255 9.31105 5.10573C9.74751 5.01892 10.1999 5.06347 10.611 5.23377C11.0222 5.40407 11.3736 5.69246 11.6208 6.06247C11.868 6.43248 12 6.86749 12 7.3125C11.9993 7.90901 11.762 8.48087 11.3402 8.90267C10.9184 9.32446 10.3465 9.56176 9.75001 9.5625Z" fill="#1D4ED8" fill-opacity="0.8"/>
</svg>