<svg xmlns="http://www.w3.org/2000/svg" width="19" height="15" viewBox="0 0 19 15" fill="none">
<path d="M18.25 1.98556C17.576 2.28416 16.861 2.48016 16.129 2.56705C16.8915 2.11002 17.477 1.38629 17.7527 0.523977C17.0278 0.954138 16.2347 1.25721 15.4077 1.42011C14.734 0.70243 13.7743 0.253906 12.7121 0.253906C10.6726 0.253906 9.01909 1.90738 9.01909 3.94672C9.01909 4.2362 9.05179 4.51801 9.11472 4.78836C6.04558 4.6343 3.32448 3.16414 1.50304 0.929891C1.18523 1.4753 1.00312 2.10973 1.00312 2.78642C1.00312 4.06766 1.65513 5.19793 2.64597 5.8602C2.05953 5.84184 1.48599 5.68344 0.973234 5.39825C0.973023 5.41372 0.973023 5.42919 0.973023 5.44473C0.973023 7.23397 2.24596 8.72656 3.93529 9.06582C3.39148 9.21372 2.82107 9.23536 2.26762 9.1291C2.73752 10.5962 4.10137 11.6639 5.71729 11.6937C4.45342 12.6842 2.86105 13.2746 1.13095 13.2746C0.83282 13.2746 0.538914 13.2571 0.25 13.223C1.88427 14.2708 3.82539 14.8821 5.91086 14.8821C12.7035 14.8821 16.4179 9.25496 16.4179 4.37499C16.4179 4.21482 16.4144 4.05556 16.4073 3.89722C17.1302 3.37458 17.7542 2.72723 18.25 1.98556Z" fill="#55ACEE"/>
</svg>