<svg xmlns="http://www.w3.org/2000/svg" width="19" height="19" viewBox="0 0 19 19" fill="none">
<g clip-path="url(#clip0_274_62726)">
<path d="M1.13588 9.45951C1.13546 10.9833 1.53361 12.4711 2.29068 13.7826L1.06348 18.2633L5.64894 17.061C6.91721 17.7514 8.33823 18.1132 9.78226 18.1133H9.78606C14.5531 18.1133 18.4336 14.2342 18.4356 9.46633C18.4365 7.15596 17.5376 4.98343 15.9044 3.34894C14.2714 1.71459 12.0997 0.814043 9.78571 0.812988C5.01811 0.812988 1.13792 4.69185 1.13595 9.45951" fill="url(#paint0_linear_274_62726)"/>
<path d="M0.827168 9.45666C0.826676 11.0353 1.2391 12.5763 2.02316 13.9347L0.751953 18.5761L5.50183 17.3306C6.81058 18.0442 8.2841 18.4204 9.78348 18.421H9.78735C14.7254 18.421 18.7453 14.4024 18.7474 9.46383C18.7482 7.07044 17.817 4.81982 16.1254 3.12677C14.4336 1.43393 12.1842 0.500984 9.78735 0.5C4.84844 0.5 0.829207 4.51804 0.827239 9.45666H0.827168ZM3.65583 13.7008L3.47847 13.4192C2.73293 12.2338 2.33942 10.8639 2.33998 9.45723C2.3416 5.35237 5.68228 2.01274 9.79016 2.01274C11.7795 2.01358 13.6491 2.78908 15.0552 4.19609C16.4613 5.60325 17.2351 7.47379 17.2346 9.46327C17.2327 13.5681 13.892 16.9082 9.78735 16.9082H9.78439C8.44788 16.9075 7.1371 16.5486 5.99397 15.8703L5.72193 15.709L2.90325 16.448L3.65583 13.7007V13.7008Z" fill="url(#paint1_linear_274_62726)"/>
<path d="M7.54777 5.71235C7.38005 5.33958 7.20354 5.33206 7.04404 5.32552C6.91343 5.3199 6.76413 5.32032 6.61496 5.32032C6.46566 5.32032 6.22307 5.37649 6.01802 5.60037C5.81276 5.82447 5.23438 6.36602 5.23438 7.46747C5.23438 8.56899 6.03665 9.63346 6.14849 9.78298C6.26047 9.93221 7.69729 12.2649 9.97287 13.1623C11.8641 13.908 12.2489 13.7597 12.6594 13.7223C13.0699 13.685 13.984 13.1809 14.1705 12.6581C14.3571 12.1354 14.3571 11.6873 14.3012 11.5937C14.2452 11.5004 14.0959 11.4444 13.872 11.3325C13.6481 11.2205 12.5474 10.6789 12.3422 10.6042C12.137 10.5295 11.9877 10.4922 11.8384 10.7164C11.6891 10.9402 11.2604 11.4444 11.1297 11.5937C10.9992 11.7434 10.8685 11.762 10.6447 11.65C10.4206 11.5377 9.69963 11.3016 8.84422 10.5389C8.17867 9.9455 7.72934 9.21268 7.59874 8.98851C7.46813 8.76469 7.58475 8.64336 7.69701 8.5318C7.7976 8.43149 7.92097 8.27038 8.03302 8.1397C8.14464 8.00895 8.1819 7.91567 8.25655 7.76636C8.33128 7.61692 8.29388 7.48617 8.238 7.37419C8.1819 7.26221 7.74685 6.15507 7.54777 5.71242" fill="white"/>
</g>
<defs>
<linearGradient id="paint0_linear_274_62726" x1="9.74954" y1="18.2633" x2="9.74954" y2="0.812988" gradientUnits="userSpaceOnUse">
<stop stop-color="#1FAF38"/>
<stop offset="1" stop-color="#60D669"/>
</linearGradient>
<linearGradient id="paint1_linear_274_62726" x1="9.74967" y1="18.5761" x2="9.74967" y2="0.5" gradientUnits="userSpaceOnUse">
<stop stop-color="#F9F9F9"/>
<stop offset="1" stop-color="white"/>
</linearGradient>
<clipPath id="clip0_274_62726">
<rect width="18" height="18.136" fill="white" transform="translate(0.75 0.5)"/>
</clipPath>
</defs>
</svg>